<svg width="32" height="32" viewBox="0 0 32 32" fill="none" xmlns="http://www.w3.org/2000/svg">
  <rect width="32" height="32" rx="7" fill="#191933"/>
  <path d="M16.5 4C20 9 21.5 12 21.5 16C21.5 19.5 19 22 16 22C13 22 10.5 19.2 10.5 16.2C10.5 12.8 13 9.5 16.5 4Z" fill="#C10C1D"/>
  <path d="M16 8C18 11 19 13 19 16C19 18.2 17.8 19.8 16 19.8C14.2 19.8 13 18 13 16.1C13 13.8 14.2 11.5 16 8Z" fill="white" fill-opacity="0.85"/>
  <rect x="9" y="22" width="14" height="8" rx="2.5" fill="#C10C1D"/>
  <rect x="11" y="24" width="10" height="1.8" rx="0.9" fill="white" fill-opacity="0.9"/>
  <rect x="11" y="27" width="7" height="1.8" rx="0.9" fill="white" fill-opacity="0.9"/>
</svg>
